# Blender v2.78 (sub 0) OBJ File: ''
# www.blender.org
mtllib lighCube.mtl
o Cube
v -0.084422 -0.993319 0.073348
v -0.643602 -1.014277 -0.341077
v -0.162758 0.930629 -0.968445
v 0.879948 0.971646 -0.372862
v -0.249737 0.982185 -0.545527
v -0.918831 0.935943 -0.067267
v -0.960906 0.947443 -0.766815
v 1.004949 -0.219187 0.217286
v 1.028596 -0.194706 -0.591594
v 0.933635 -0.957687 -0.273862
v 0.943863 -0.805008 -0.904061
v 1.003302 0.217628 -0.220288
v 0.930525 0.226061 -0.913902
v 1.003648 0.642722 0.295013
v 0.992390 -0.329437 0.878935
v 0.158514 -0.341240 1.009039
v 0.766800 -0.798147 1.014668
v -0.126445 0.949472 0.925002
v 0.179519 0.135294 0.999425
v -0.484872 0.128147 1.019282
v -0.846463 0.834101 0.984143
v -0.443861 -0.502539 0.997482
v -0.960357 -0.201470 0.880098
v -0.885330 -0.879015 0.921421
v -0.938557 0.959194 0.712190
v -0.999552 0.482937 0.099419
v -0.891031 -0.928382 -0.819029
v 0.774373 0.911014 -0.933946
v 0.425862 -0.866984 -0.981773
v -0.990378 -0.508047 -0.857151
v 0.028811 -0.154629 -1.002364
v -0.612712 0.737264 -0.990392
v 0.425812 -1.037220 0.229137
v 0.145155 -0.979839 0.886204
v -0.947350 -0.953143 0.497177
v 0.058152 -1.004431 -0.619913
v -0.867973 0.168565 -0.960966
v -1.025770 -0.806331 0.000267
v -0.288498 -0.921570 -0.918166
v -0.543884 -0.397552 -1.010663
v 0.277657 0.459169 -0.998650
v -0.067449 0.990596 0.076052
v 0.729533 1.012046 0.336794
v 0.821108 0.927525 0.932970
v -1.013440 -0.195798 0.146258
v -0.993767 0.059381 -0.482809
v 0.976935 -0.892599 0.450561
v 0.920774 0.415352 0.953965
vn 0.0435 -0.9987 0.0249
vn 0.0444 -0.9481 -0.3150
vn 0.1496 -0.9615 -0.2305
vn 0.2258 -0.9436 0.2421
vn -0.0130 -0.9976 0.0680
vn -0.5716 -0.8071 -0.1482
vn 0.0222 -0.9995 0.0206
vn -0.0166 -0.9856 -0.1685
vn 0.0119 0.9998 -0.0170
vn 0.0264 0.9933 -0.1123
vn 0.0250 0.9929 -0.1159
vn -0.0650 0.9979 0.0056
vn -0.0549 0.9983 0.0197
vn -0.0102 0.9923 -0.1231
vn -0.1945 0.5452 -0.8154
vn -0.0007 0.9988 0.0483
vn -0.1059 0.8893 0.4449
vn -0.0417 0.9981 0.0454
vn 0.0218 0.9903 0.1371
vn 0.9990 0.0341 0.0302
vn 0.9933 -0.1130 0.0256
vn 0.9838 0.1378 -0.1143
vn 0.8028 0.5803 0.1371
vn 1.0000 0.0017 -0.0021
vn 0.9951 0.0922 0.0343
vn 0.9625 0.1950 0.1883
vn 0.9967 -0.0602 -0.0542
vn 0.9992 -0.0371 0.0128
vn 0.8725 -0.3107 0.3770
vn 0.0545 0.0177 0.9984
vn 0.1548 -0.0843 0.9843
vn 0.1479 0.2088 0.9667
vn -0.0063 0.0887 0.9960
vn 0.0426 0.0492 0.9979
vn 0.0631 0.1143 0.9914
vn 0.0302 -0.0326 0.9990
vn -0.0249 0.0213 0.9995
vn 0.0319 -0.1894 0.9814
vn -0.2488 -0.0496 0.9673
vn -0.2006 0.0375 0.9789
vn -0.9820 -0.0989 0.1608
vn -0.9859 0.1647 -0.0299
vn -0.9536 -0.1843 0.2382
vn -0.9995 0.0188 -0.0236
vn -0.9848 0.1356 -0.1084
vn -0.9966 0.0563 0.0609
vn -0.9631 -0.0490 -0.2646
vn -0.9996 0.0116 -0.0266
vn -0.9991 0.0277 -0.0316
vn -0.9649 0.1405 -0.2218
vn 0.1144 -0.0404 -0.9926
vn 0.1289 0.0004 -0.9917
vn 0.0387 0.0998 -0.9943
vn 0.1011 -0.0082 -0.9948
vn 0.1422 0.0507 -0.9885
vn -0.3037 -0.0906 -0.9485
vn -0.0828 -0.0749 -0.9938
vn 0.0731 -0.1387 -0.9876
vn -0.1547 -0.2444 -0.9573
vn -0.2871 -0.1536 -0.9455
vn -0.4620 0.1622 -0.8719
vn -0.0284 -0.9825 -0.1840
vn 0.2253 -0.9715 0.0738
vn 0.1400 -0.9645 -0.2240
vn -0.0991 -0.9941 0.0445
vn 0.1879 -0.9683 0.1648
vn -0.0337 -0.9991 0.0261
vn -0.0895 -0.9788 0.1841
vn -0.0645 -0.9783 -0.1968
vn -0.0588 0.9978 -0.0313
vn -0.0077 0.9983 -0.0585
vn 0.9601 0.0098 -0.2794
vn 0.9914 -0.1298 -0.0154
vn 0.9832 0.1516 -0.1013
vn 0.9848 0.1406 -0.1016
vn 0.9560 0.2120 -0.2028
vn 0.9925 -0.0095 0.1216
vn 0.8003 0.5983 -0.0381
vn -0.1471 -0.1839 0.9719
vn 0.0291 0.0646 0.9975
vn -0.2341 -0.0717 0.9696
vn 0.0126 -0.2122 0.9771
vn -0.9960 -0.0537 0.0716
vn -0.9884 -0.0162 0.1512
vn -0.9971 0.0254 0.0723
vn -0.9865 0.0951 0.1329
vn -0.9633 -0.2388 -0.1228
vn -0.4332 -0.8991 0.0627
vn 0.0067 0.0183 -0.9998
vn -0.0066 0.0087 -0.9999
vn 0.0151 0.0780 -0.9968
vn -0.1354 0.0095 -0.9908
usemtl Material.001
s off
f 1//1 36//1 10//1
f 39//2 29//2 36//2
f 29//3 11//3 10//3
f 17//4 34//4 47//4
f 35//5 2//5 1//5
f 38//6 2//6 35//6
f 1//7 2//7 36//7
f 2//8 27//8 39//8
f 4//9 5//9 42//9
f 5//10 4//10 28//10
f 5//11 28//11 3//11
f 6//12 42//12 5//12
f 5//13 7//13 6//13
f 5//14 3//14 7//14
f 3//15 32//15 7//15
f 25//16 18//16 42//16
f 18//17 25//17 21//17
f 43//18 42//18 18//18
f 18//19 44//19 43//19
f 8//20 9//20 12//20
f 10//21 9//21 8//21
f 4//22 14//22 12//22
f 4//23 43//23 14//23
f 8//24 12//24 14//24
f 48//25 15//25 8//25
f 14//26 44//26 48//26
f 47//27 10//27 8//27
f 15//28 47//28 8//28
f 15//29 17//29 47//29
f 16//30 48//30 19//30
f 48//31 16//31 15//31
f 15//32 16//32 17//32
f 19//33 44//33 18//33
f 48//34 44//34 19//34
f 18//35 21//35 19//35
f 22//36 19//36 20//36
f 16//37 19//37 22//37
f 34//38 16//38 22//38
f 22//39 20//39 23//39
f 24//40 22//40 23//40
f 24//41 23//41 35//41
f 25//42 6//42 26//42
f 25//43 26//43 21//43
f 26//44 46//44 45//44
f 46//45 26//45 6//45
f 7//46 46//46 6//46
f 37//47 46//47 7//47
f 30//48 45//48 46//48
f 38//49 45//49 30//49
f 30//50 46//50 37//50
f 13//51 31//51 41//51
f 41//52 28//52 13//52
f 41//53 3//53 28//53
f 11//54 31//54 13//54
f 11//55 29//55 31//55
f 40//56 30//56 37//56
f 29//57 39//57 31//57
f 39//58 40//58 31//58
f 40//59 39//59 27//59
f 27//60 30//60 40//60
f 37//61 7//61 32//61
f 1//62 10//62 33//62
f 10//63 47//63 33//63
f 29//64 10//64 36//64
f 34//65 1//65 33//65
f 47//66 34//66 33//66
f 34//67 35//67 1//67
f 34//68 24//68 35//68
f 2//69 39//69 36//69
f 6//70 25//70 42//70
f 43//71 4//71 42//71
f 9//72 11//72 13//72
f 11//73 9//73 10//73
f 13//74 12//74 9//74
f 4//75 12//75 13//75
f 4//76 13//76 28//76
f 48//77 8//77 14//77
f 43//78 44//78 14//78
f 16//79 34//79 17//79
f 19//80 21//80 20//80
f 21//81 23//81 20//81
f 34//82 22//82 24//82
f 23//83 45//83 35//83
f 38//84 35//84 45//84
f 45//85 23//85 26//85
f 21//86 26//86 23//86
f 38//87 30//87 27//87
f 38//88 27//88 2//88
f 31//89 40//89 32//89
f 31//90 32//90 41//90
f 3//91 41//91 32//91
f 32//92 40//92 37//92
